<?xml version="1.0" encoding="iso-8859-1"?>
<!-- Uploaded to: SVG Repo, www.svgrepo.com, Generator: SVG Repo Mixer Tools -->
<svg fill="#000000" height="800px" width="800px" version="1.1" id="Layer_1" xmlns="http://www.w3.org/2000/svg" xmlns:xlink="http://www.w3.org/1999/xlink" 
	 viewBox="0 0 508.636 508.636" xml:space="preserve">
<g>
	<g>
		<path d="M254.328,161.888c-58.584,0-106.244,47.664-106.244,106.248c0,58.58,47.66,106.244,106.244,106.244
			c58.584,0,106.248-47.664,106.248-106.244C360.572,209.548,312.912,161.888,254.328,161.888z"/>
	</g>
</g>
<g>
	<g>
		<path d="M443.08,236.584c-8.752,0-15.868,7.124-15.868,15.872c0,8.752,7.116,15.868,15.868,15.868
			c8.756,0,15.876-7.12,15.876-15.868C458.956,243.708,451.84,236.584,443.08,236.584z"/>
	</g>
</g>
<g>
	<g>
		<path d="M254.328,0c-19.584,0-35.512,15.928-35.512,35.512c0,19.58,15.928,35.516,35.512,35.516
			c19.584,0,35.516-15.932,35.516-35.516S273.916,0,254.328,0z"/>
	</g>
</g>
<g>
	<g>
		<path d="M155.76,354.4c-4.488-4.484-12.3-4.484-16.776,0c-4.628,4.62-4.628,12.148,0,16.772c2.236,2.24,5.216,3.472,8.384,3.472
			c3.168,0,6.148-1.236,8.392-3.472C160.384,366.544,160.384,359.02,155.76,354.4z"/>
	</g>
</g>
<g>
	<g>
		<g>
			<path d="M200.956,393.352c-4.068-1.656-8.644,0.276-10.3,4.344c-1.66,4.02,0.276,8.636,4.34,10.256
				c0.948,0.392,1.972,0.592,2.96,0.592c3.116,0,6.076-1.856,7.3-4.892C206.912,399.588,204.98,395.012,200.956,393.352z"/>
			<path d="M133.884,180.928c-3.716-2.328-8.564-1.224-10.892,2.444c-2.328,3.712-1.264,8.56,2.444,10.888
				c1.304,0.832,2.76,1.228,4.184,1.228c2.644,0,5.208-1.304,6.704-3.672C138.656,188.148,137.552,183.26,133.884,180.928z"/>
			<path d="M169.352,136.384c-3.672,2.408-4.696,7.296-2.328,10.928c1.496,2.328,4.06,3.588,6.628,3.588
				c1.46,0,2.96-0.392,4.304-1.26c3.628-2.404,4.696-7.3,2.288-10.928C177.876,135.044,172.98,134.016,169.352,136.384z"/>
			<path d="M122.44,330.972c-3.788,2.168-5.092,6.984-2.92,10.772c1.42,2.524,4.104,3.988,6.82,3.988
				c1.344,0,2.684-0.36,3.908-1.068c3.788-2.132,5.132-6.98,2.96-10.732C131.04,330.1,126.228,328.804,122.44,330.972z"/>
			<path d="M143.624,157.412c-3.036,3.116-3,8.088,0.08,11.164c1.54,1.5,3.548,2.252,5.564,2.256c2.008,0,4.06-0.752,5.6-2.332
				c3.036-3.12,3.036-8.088-0.08-11.168C151.672,154.296,146.7,154.296,143.624,157.412z"/>
			<path d="M174.756,379.184c-3.588-2.484-8.524-1.576-10.968,2.012c-2.488,3.592-1.58,8.484,1.972,10.968
				c1.38,0.952,2.96,1.384,4.5,1.384c2.484,0,4.972-1.184,6.508-3.392C179.212,386.564,178.344,381.672,174.756,379.184z"/>
			<path d="M139.564,357.488c-3.24,2.916-3.512,7.888-0.592,11.124c1.576,1.736,3.708,2.604,5.88,2.604
				c1.892,0,3.784-0.672,5.284-2.012c3.236-2.96,3.472-7.932,0.552-11.164S142.76,354.568,139.564,357.488z"/>
			<path d="M386.7,214.028c1.068,0,2.172-0.196,3.196-0.668c3.988-1.772,5.804-6.432,4.028-10.416
				c-1.776-3.984-6.428-5.764-10.416-3.984c-3.984,1.732-5.76,6.392-4.024,10.372C380.784,212.296,383.664,214.028,386.7,214.028z"
				/>
			<path d="M364.532,186.764c1.536,0,3.904,1.776,6.312,1.776c1.66,0,3.276-1.936,4.696-2.96c3.512-2.604,4.26-10.74,1.66-10.74
				c0.036,0,0.036,0,0.036,0c-2.608-3.972-7.532-2.952-11.048-0.388c-3.508,2.608-4.264,8.336-1.7,12.312H364.532z"/>
			<path d="M388.564,237.74c0.74,3.748,4.056,6.316,7.728,6.316c0.512,0,1.064-0.04,1.576-0.16c4.264-0.868,7.024-5.052,6.16-9.312
				c-0.868-4.264-5.052-7.02-9.312-6.156C390.46,229.3,387.692,233.484,388.564,237.74z"/>
			<path d="M121.376,306.588c-1.304-4.18-5.724-6.512-9.904-5.208c-4.144,1.3-6.472,5.72-5.208,9.864
				c1.064,3.396,4.18,5.568,7.536,5.564c0.788,0,1.576-0.116,2.368-0.356C120.312,315.152,122.64,310.732,121.376,306.588z"/>
			<path d="M113.128,223.304c0.868,0.352,1.776,0.468,2.684,0.472c3.232,0,6.272-1.972,7.416-5.208c1.46-4.1-0.632-8.6-4.736-10.1
				c-4.1-1.46-8.64,0.632-10.1,4.732C106.892,217.304,109.024,221.84,113.128,223.304z"/>
			<path d="M108.432,282.132c4.34,0,7.576-2.82,7.18-7.16c-0.356-4.336-4.184-6.128-8.524-5.776c-4.34,0.396-7.576,3.288-7.18,7.632
				c0.36,4.1,3.788,5.304,7.852,5.304C107.996,282.132,108.236,282.132,108.432,282.132z"/>
			<path d="M107.404,254.348c0.316,0.044,0.672,0.044,0.988,0.04c3.908,0,7.3-2.88,7.852-6.864c0.556-4.34-2.524-8.284-6.824-8.84
				c-4.34-0.548-8.284,2.488-8.84,6.828C100.028,249.812,103.068,253.76,107.404,254.348z"/>
			<path d="M296.988,117.88c-4.184-1.224-8.568,1.14-9.828,5.324c-1.228,4.184,1.14,8.568,5.324,9.828
				c0.752,0.196,1.5,0.312,2.252,0.316c3.392,0,6.548-2.212,7.576-5.644C303.54,123.524,301.168,119.104,296.988,117.88z"/>
			<path d="M354.784,149.8c-3.276-2.88-8.284-2.564-11.164,0.708c-2.88,3.276-2.564,8.248,0.712,11.128
				c1.496,1.34,3.352,1.968,5.208,1.968c2.208,0,4.376-0.904,5.96-2.68C358.376,157.648,358.02,152.68,354.784,149.8z"/>
			<path d="M373.252,349.044c-3.436-2.684-8.364-2.052-11.048,1.384c-2.684,3.428-2.088,8.4,1.344,11.084
				c1.46,1.1,3.152,1.656,4.852,1.656c2.328,0,4.656-1.028,6.232-3.036C377.32,356.696,376.684,351.728,373.252,349.044z"/>
			<path d="M341.416,371.808c-3.356,2.8-3.788,7.772-1.028,11.124c1.576,1.856,3.824,2.844,6.072,2.844
				c1.776,0,3.592-0.592,5.048-1.816c3.356-2.8,3.788-7.772,1.032-11.124C349.736,369.484,344.768,369.052,341.416,371.808z"/>
			<path d="M399.368,260.32c-4.38-0.08-7.964,4.124-8.008,8.456c-0.08,4.344,3.432,9.38,7.772,9.38c0.04,0,0.08,0,0.08,0
				c4.336,0,7.848-4.496,7.928-8.8C407.18,264.976,403.712,260.364,399.368,260.32z"/>
			<path d="M198.98,121.392c-4.104,1.536-6.152,6.112-4.616,10.18c1.184,3.156,4.184,5.128,7.376,5.124
				c0.948,0,1.856-0.156,2.8-0.512c4.064-1.536,6.116-6.076,4.616-10.18C207.62,121.944,203.044,119.892,198.98,121.392z"/>
			<path d="M327.604,130.704c-3.828-2.132-8.604-0.752-10.732,3.076c-2.096,3.828-0.716,8.604,3.116,10.732
				c1.184,0.672,2.528,0.984,3.788,0.988c2.804,0,5.484-1.5,6.944-4.104C332.816,137.608,331.432,132.792,327.604,130.704z"/>
			<path d="M397.24,291.12c-4.26-1.024-8.524,1.62-9.508,5.88c-0.988,4.224,1.656,8.488,5.916,9.472
				c0.592,0.156,1.184,0.196,1.776,0.196c3.596,0,6.832-2.448,7.696-6.08C404.104,296.332,401.464,292.108,397.24,291.12z"/>
			<path d="M388.396,321.384c-3.944-1.896-8.636-0.196-10.532,3.708c-1.856,3.948-0.2,8.64,3.712,10.536
				c1.104,0.512,2.292,0.788,3.392,0.788c2.956,0,5.8-1.656,7.14-4.496C394,327.976,392.344,323.28,388.396,321.384z"/>
			<path d="M259.344,402.98c-4.34,0.196-7.732,3.356-7.536,7.7c0.16,4.26,3.672,6.556,7.856,6.56c0.116,0,0.236,0,0.352,0
				c4.34,0,7.736-3.108,7.54-7.484C267.396,405.412,263.684,402.784,259.344,402.98z"/>
			<path d="M231.136,113.144c-4.304,0.628-7.3,4.62-6.668,8.956c0.552,3.904,3.944,6.748,7.772,6.744c0.392,0,0.748-0.04,1.144-0.08
				c4.3-0.632,7.3-4.616,6.708-8.916C239.46,115.512,235.436,112.512,231.136,113.144z"/>
			<path d="M229.596,401.556c-4.3-0.748-8.364,2.132-9.116,6.432c-0.748,4.296,2.132,8.36,6.432,9.112
				c0.436,0.084,0.908,0.12,1.34,0.12c3.748,0,7.104-2.724,7.772-6.548C236.772,406.372,233.896,402.308,229.596,401.556z"/>
			<path d="M264.316,111.96c-4.34-0.308-8.124,2.964-8.44,7.3c-0.316,4.344,2.956,8.128,7.296,8.444c0.2,0,0.392,0.04,0.592,0.044
				c4.1,0,7.532-3.2,7.852-7.344C271.928,116.064,268.66,112.28,264.316,111.96z"/>
			<path d="M316.596,388.3c-3.868,2.016-5.404,6.748-3.396,10.612c1.42,2.724,4.144,4.3,7.024,4.304c1.22,0,2.444-0.316,3.632-0.908
				c3.868-2.012,5.364-6.748,3.396-10.612C325.24,387.828,320.46,386.292,316.596,388.3z"/>
			<path d="M288.82,399.032c-4.22,1.104-6.748,5.448-5.604,9.624c0.908,3.552,4.1,5.88,7.616,5.88c0.668,0,1.34-0.076,2.012-0.276
				c4.22-1.104,6.7-5.444,5.6-9.628C297.34,400.408,293,397.888,288.82,399.032z"/>
		</g>
	</g>
</g>
<g>
	<g>
		<path d="M448.684,274.432c-2.916-2.916-8.248-2.916-11.164,0c-1.464,1.504-2.332,3.516-2.332,5.604
			c0,2.052,0.868,4.104,2.332,5.568c1.456,1.456,3.512,2.324,5.56,2.324c2.096,0,4.148-0.868,5.604-2.324
			c1.456-1.464,2.288-3.516,2.288-5.568C450.972,277.944,450.14,275.932,448.684,274.432z"/>
	</g>
</g>
<g>
	<g>
		<g>
			<path d="M138.692,126.32c1.696,0,3.392-0.508,4.852-1.652c3.432-2.644,4.064-7.616,1.38-11.048
				c-2.644-3.432-7.616-4.064-11.044-1.424c-3.472,2.684-4.1,7.616-1.42,11.088C133.996,125.296,136.364,126.32,138.692,126.32z"/>
			<path d="M115.532,147.548c2.092,0,4.224-0.864,5.76-2.52c2.96-3.196,2.804-8.208-0.392-11.164
				c-3.196-2.964-8.204-2.768-11.164,0.428c-2.96,3.2-2.764,8.208,0.432,11.168C111.664,146.836,113.6,147.548,115.532,147.548z"/>
			<path d="M110.564,391.3c-3.196,2.96-3.356,7.928-0.396,11.124c1.54,1.656,3.672,2.528,5.76,2.528
				c1.932,0,3.864-0.712,5.404-2.132c3.156-2.956,3.356-7.968,0.396-11.124C118.728,388.5,113.76,388.3,110.564,391.3z"/>
			<path d="M88.628,341.74h-0.04c-1.74-3.976-6.392-5.816-10.38-4.04c-3.984,1.732-5.8,6.332-4.024,10.316
				c1.3,2.96,4.184,4.72,7.22,4.724c1.068,0,2.132-0.168,3.2-0.644C88.588,350.324,90.364,345.716,88.628,341.74z"/>
			<path d="M193.896,96.732c0.828,0,1.656-0.12,2.484-0.396c4.14-1.376,6.352-5.876,4.968-9.976c-1.38-4.144-5.876-6.36-9.98-4.976
				c-4.144,1.38-6.352,5.88-4.972,9.98C187.496,94.68,190.576,96.732,193.896,96.732z"/>
			<path d="M143.984,411.932c-3.432-2.644-8.404-2.012-11.048,1.46c-2.644,3.436-2.012,8.404,1.46,11.048
				c1.416,1.104,3.112,1.656,4.812,1.656c2.368,0,4.696-1.064,6.236-3.076C148.128,419.552,147.456,414.576,143.984,411.932z"/>
			<path d="M169.312,428.224c-3.828-2.008-8.604-0.588-10.656,3.276c-2.048,3.868-0.592,8.64,3.236,10.692
				c1.184,0.632,2.448,0.908,3.708,0.908c2.844,0,5.568-1.5,6.984-4.184C174.636,435.052,173.176,430.272,169.312,428.224z"/>
			<path d="M165.088,109.236c1.224,0,2.528-0.316,3.708-0.948c3.828-2.048,5.288-6.824,3.196-10.688
				c-2.052-3.824-6.824-5.284-10.652-3.196c-3.868,2.048-5.288,6.824-3.236,10.692C159.528,107.74,162.248,109.236,165.088,109.236z
				"/>
			<path d="M66.532,292.032c4.34-0.352,7.572-4.184,7.18-8.52c-0.356-4.34-4.184-7.576-8.524-7.22
				c-4.34,0.392-7.532,4.18-7.176,8.516c0.312,4.144,3.788,7.26,7.852,7.264C66.1,292.072,66.296,292.072,66.532,292.032z"/>
			<path d="M421.344,197.656c1.304,3,4.22,4.816,7.3,4.812c1.028,0,2.052-0.196,3.04-0.632c4.024-1.696,5.92-6.312,4.224-10.336
				c-1.704-3.984-6.316-5.876-10.34-4.18C421.544,189.012,419.648,193.632,421.344,197.656z"/>
			<path d="M77.972,199.232c1.028,0.476,2.092,0.672,3.152,0.672c3.04,0,5.92-1.736,7.224-4.696
				c1.772-4.024-0.04-8.676-4.024-10.416c-4.024-1.736-8.68,0.044-10.416,4.064C72.172,192.84,73.948,197.46,77.972,199.232z"/>
			<path d="M91.82,170.984c1.344,0.908,2.84,1.304,4.3,1.3c2.56,0,5.088-1.26,6.628-3.548c2.368-3.628,1.38-8.52-2.288-10.928
				c-3.628-2.408-8.52-1.384-10.928,2.248C87.164,163.724,88.188,168.616,91.82,170.984z"/>
			<path d="M430.696,226.26c0.868,3.632,4.104,6.076,7.692,6.076c0.588,0,1.228-0.036,1.816-0.196
				c4.264-1.028,6.868-5.248,5.88-9.508c-1.028-4.224-5.248-6.868-9.512-5.884C432.356,217.776,429.712,222.036,430.696,226.26z"/>
			<path d="M78.724,313.176c-1.068-4.22-5.368-6.748-9.588-5.684c-4.22,1.108-6.784,5.412-5.68,9.632
				c0.904,3.548,4.104,5.92,7.608,5.916c0.676,0,1.308-0.076,1.976-0.236C77.264,321.696,79.828,317.396,78.724,313.176z"/>
			<path d="M197.008,440.14c-4.144-1.416-8.604,0.836-9.984,4.976s0.868,8.6,4.972,9.984c0.828,0.272,1.696,0.392,2.524,0.392
				c3.276,0,6.356-2.092,7.46-5.412C203.36,445.98,201.152,441.484,197.008,440.14z"/>
			<path d="M65.188,262.264c0.2,0,0.396,0,0.632,0c4.064,0,7.536-3.728,7.852-7.872c0.356-4.34-2.884-8.748-7.22-9.1
				c-4.34-0.352-8.164,3.292-8.52,7.636C57.612,257.264,60.808,262.264,65.188,262.264z"/>
			<path d="M68.98,229.416c0.668,0.156,1.3,0.236,1.932,0.236c3.552,0,6.748-2.404,7.656-5.956c1.064-4.26-1.504-8.52-5.724-9.588
				c-4.22-1.064-8.524,1.5-9.588,5.724C62.192,224.048,64.76,228.352,68.98,229.416z"/>
			<path d="M92.136,365.812c-3.628,2.404-4.616,7.296-2.208,10.924c1.5,2.292,4.024,3.516,6.584,3.516c1.46,0,3-0.396,4.344-1.3
				c3.628-2.412,4.616-7.3,2.208-10.932C100.656,364.392,95.764,363.404,92.136,365.812z"/>
			<path d="M400.712,388.144c-3.232-2.88-8.244-2.604-11.124,0.628c-2.92,3.236-2.608,8.248,0.628,11.128
				c1.496,1.38,3.388,2.008,5.244,2.012c2.172,0,4.344-0.868,5.88-2.644C404.264,396.032,403.988,391.06,400.712,388.144z"/>
			<path d="M367.732,409.528c-3.4,2.72-3.912,7.688-1.188,11.084c1.532,1.936,3.828,2.956,6.156,2.956
				c1.736,0,3.468-0.592,4.928-1.736c3.392-2.76,3.952-7.732,1.224-11.124C376.092,407.316,371.124,406.804,367.732,409.528z"/>
			<path d="M395.032,149.64c1.892,0,3.784-0.668,5.284-2.052c3.228-2.88,3.508-7.892,0.592-11.128
				c-2.92-3.232-7.896-3.504-11.168-0.588c-3.236,2.92-3.504,7.888-0.588,11.124C390.728,148.732,392.86,149.64,395.032,149.64z"/>
			<path d="M367.252,126.36c1.464,1.144,3.196,1.7,4.896,1.704c2.328,0,4.612-1.028,6.192-2.96
				c2.724-3.392,2.168-8.364-1.264-11.084c-3.392-2.732-8.36-2.172-11.084,1.256C363.268,118.668,363.82,123.64,367.252,126.36z"/>
			<path d="M418.628,362.26c-3.712-2.328-8.568-1.224-10.896,2.444c-2.328,3.712-1.264,8.56,2.448,10.888
				c1.3,0.832,2.76,1.228,4.22,1.224c2.608,0,5.168-1.3,6.672-3.668C423.4,369.44,422.296,364.588,418.628,362.26z"/>
			<path d="M440.32,303.472c-4.22-0.988-8.48,1.656-9.468,5.876c-0.988,4.264,1.66,8.48,5.92,9.472
				c0.592,0.16,1.18,0.236,1.772,0.236c3.592,0,6.828-2.488,7.696-6.116C447.228,308.68,444.584,304.456,440.32,303.472z"/>
			<path d="M414.048,174.652c1.464,0,2.924-0.396,4.22-1.224c3.668-2.368,4.776-7.22,2.412-10.888
				c-2.328-3.668-7.18-4.776-10.892-2.448c-3.668,2.328-4.732,7.224-2.408,10.892C408.88,173.348,411.44,174.656,414.048,174.652z"
				/>
			<path d="M431.916,333.776c-3.984-1.7-8.64,0.196-10.296,4.216c-1.692,4.028,0.196,8.644,4.228,10.34
				c0.984,0.436,2.048,0.636,3.028,0.632c3.076,0,6.04-1.856,7.3-4.856C437.872,340.088,435.944,335.472,431.916,333.776z"/>
			<path d="M342.792,426.372c-3.824,2.136-5.168,6.944-3.044,10.732c1.424,2.564,4.108,4.024,6.912,4.024
				c1.3,0,2.6-0.316,3.824-0.988c3.792-2.128,5.168-6.936,3.04-10.768C351.392,425.584,346.58,424.244,342.792,426.372z"/>
			<path d="M226.244,447.208c-4.3-0.672-8.324,2.288-8.992,6.584c-0.672,4.304,2.284,8.328,6.584,9
				c0.396,0.076,0.792,0.116,1.224,0.116c3.828,0,7.18-2.804,7.772-6.668C233.504,451.9,230.544,447.876,226.244,447.208z"/>
			<path d="M342.236,109.596c1.184,0.668,2.528,0.984,3.832,0.984c2.76,0,5.44-1.46,6.9-4.068c2.088-3.824,0.712-8.596-3.076-10.728
				c-3.824-2.132-8.604-0.752-10.736,3.076C337.028,102.652,338.412,107.464,342.236,109.596z"/>
			<path d="M255.672,87.42v-0.004h0.04c4.34,0,7.852-3.7,7.892-8.044c0.04-4.34-3.468-8.12-7.852-8.12
				c-4.34-0.04-7.888,3.564-7.928,7.94C247.784,83.536,251.296,87.42,255.672,87.42z"/>
			<path d="M285.664,89.588c0.428,0.08,0.9,0.12,1.34,0.116c3.788,0,7.104-2.716,7.772-6.544c0.748-4.3-2.132-8.364-6.432-9.116
				c-4.3-0.748-8.36,2.132-9.112,6.436C278.48,84.736,281.364,88.836,285.664,89.588z"/>
			<path d="M224.384,89.236c0.392,0,0.828-0.04,1.224-0.08c4.3-0.708,7.26-4.732,6.548-9.032c-0.668-4.304-4.732-7.264-9.032-6.552
				c-4.3,0.672-7.22,4.696-6.548,9.032C217.208,86.472,220.56,89.232,224.384,89.236z"/>
			<path d="M256.308,449.316c-4.38,0.04-7.852,3.536-7.812,7.912c0.04,4.336,3.552,7.696,7.892,7.696c0.04,0,0.04,0,0.08,0
				c4.34,0,7.852-3.544,7.812-7.884C264.236,452.66,260.648,449.232,256.308,449.316z"/>
			<path d="M315.372,438.836c-4.104,1.464-6.236,6-4.776,10.064c1.144,3.24,4.18,5.248,7.412,5.244c0.912,0,1.816-0.156,2.688-0.472
				c4.1-1.46,6.228-5.96,4.772-10.064C324.008,439.508,319.468,437.376,315.372,438.836z"/>
			<path d="M314.776,97.208c0.868,0.316,1.74,0.432,2.648,0.428c3.236,0,6.272-2.012,7.42-5.248c1.456-4.104-0.716-8.6-4.816-10.06
				c-4.104-1.46-8.604,0.712-10.064,4.816C308.504,91.248,310.676,95.744,314.776,97.208z"/>
			<path d="M286.292,446.568c-4.304,0.756-7.18,4.856-6.392,9.16c0.672,3.828,3.988,6.508,7.772,6.508
				c0.436,0,0.908-0.036,1.38-0.116c4.304-0.788,7.144-4.892,6.392-9.156C294.66,448.664,290.552,445.824,286.292,446.568z"/>
		</g>
	</g>
</g>
<g>
	<g>
		<path d="M448.684,250.64c-2.96-2.92-8.204-2.92-11.164,0c-1.464,1.464-2.332,3.512-2.332,5.564c0,2.096,0.868,4.144,2.332,5.608
			c1.456,1.456,3.512,2.324,5.56,2.324c2.096,0,4.108-0.868,5.604-2.324c1.456-1.464,2.288-3.512,2.288-5.608
			C450.972,254.152,450.14,252.104,448.684,250.64z"/>
	</g>
</g>
<g>
	<g>
		<path d="M291.384,32.028c-2.92-2.916-8.208-2.916-11.168,0c-1.456,1.5-2.288,3.512-2.288,5.604c0,2.092,0.832,4.1,2.288,5.56
			c1.5,1.5,3.516,2.328,5.604,2.328c2.052,0,4.104-0.828,5.564-2.328c1.46-1.46,2.328-3.468,2.328-5.56
			C293.712,35.54,292.844,33.528,291.384,32.028z"/>
	</g>
</g>
<g>
	<g>
		<g>
			<path d="M79.196,421.404C76,424.4,75.84,429.372,78.8,432.568c1.58,1.656,3.672,2.488,5.76,2.484
				c1.932,0,3.904-0.712,5.404-2.132c3.196-2.96,3.356-7.972,0.356-11.164C87.364,418.604,82.352,418.44,79.196,421.404z"/>
			<path d="M84.016,117.568c2.128,0,4.216-0.828,5.756-2.488c2.996-3.196,2.8-8.208-0.396-11.168
				c-3.196-2.956-8.164-2.796-11.124,0.396c-3,3.196-2.8,8.168,0.396,11.168C80.144,116.892,82.076,117.564,84.016,117.568z"/>
			<path d="M59.944,396.152c-3.592,2.524-4.42,7.456-1.892,11.008c1.536,2.168,3.98,3.312,6.472,3.316
				c1.576,0,3.156-0.472,4.536-1.46c3.548-2.488,4.376-7.42,1.852-10.968C68.388,394.496,63.492,393.628,59.944,396.152z"/>
			<path d="M59.468,140.8c1.38,0.948,2.96,1.424,4.536,1.424c2.488,0,4.932-1.144,6.472-3.352c2.484-3.552,1.656-8.484-1.932-10.972
				c-3.556-2.524-8.484-1.656-10.972,1.896C55.052,133.344,55.916,138.276,59.468,140.8z"/>
			<path d="M161.188,62.796c1.068,0,2.132-0.192,3.156-0.668c3.984-1.732,5.8-6.388,4.064-10.372
				c-1.74-3.988-6.392-5.804-10.38-4.064c-4.024,1.736-5.84,6.388-4.064,10.372C155.228,61.024,158.148,62.8,161.188,62.796z"/>
			<path d="M137.86,460.348c-3.748-2.252-8.6-1.072-10.848,2.68c-2.248,3.712-1.064,8.56,2.644,10.812
				c1.304,0.788,2.684,1.144,4.1,1.148c2.644,0,5.248-1.344,6.748-3.788C142.756,467.488,141.568,462.636,137.86,460.348z"/>
			<path d="M165.088,474.432c-3.984-1.736-8.64,0.116-10.376,4.144c-1.736,3.98,0.116,8.636,4.14,10.376
				c0.988,0.428,2.052,0.624,3.12,0.628c3.036,0,5.956-1.772,7.26-4.772C170.928,480.824,169.112,476.168,165.088,474.432z"/>
			<path d="M112.768,442.704c-3.392-2.76-8.36-2.248-11.084,1.144c-2.764,3.356-2.248,8.328,1.144,11.092
				c1.464,1.184,3.236,1.776,4.968,1.772c2.288,0,4.58-1.028,6.116-2.92C116.676,450.4,116.164,445.428,112.768,442.704z"/>
			<path d="M107.168,95.868c1.776,0,3.512-0.592,4.972-1.776c3.392-2.764,3.904-7.732,1.144-11.128
				c-2.76-3.352-7.732-3.864-11.124-1.104c-3.352,2.76-3.864,7.732-1.104,11.084C102.632,94.88,104.884,95.864,107.168,95.868z"/>
			<path d="M133.056,77.484c1.42,0,2.84-0.352,4.1-1.144c3.708-2.292,4.892-7.144,2.604-10.852c-2.248-3.748-7.1-4.892-10.848-2.644
				c-3.708,2.288-4.856,7.14-2.608,10.884C127.804,76.14,130.408,77.48,133.056,77.484z"/>
			<path d="M44.28,368.532c-3.868,2.012-5.368,6.788-3.352,10.652c1.42,2.684,4.18,4.224,7.024,4.224c1.22,0,2.484-0.28,3.628-0.868
				c3.864-2.012,5.364-6.788,3.352-10.652C52.924,368.02,48.148,366.524,44.28,368.532z"/>
			<path d="M32.288,198.088c0.864,0.276,1.772,0.436,2.644,0.436c3.232,0,6.312-2.012,7.456-5.248
				c1.42-4.104-0.712-8.64-4.816-10.064c-4.144-1.456-8.64,0.676-10.1,4.816C26.052,192.132,28.184,196.628,32.288,198.088z"/>
			<path d="M43.924,168.5c1.144,0.592,2.404,0.868,3.592,0.868c2.876,0,5.64-1.54,7.02-4.26c2.016-3.868,0.516-8.64-3.392-10.612
				c-3.864-2.012-8.6-0.512-10.612,3.392C38.52,161.748,40.056,166.488,43.924,168.5z"/>
			<path d="M466.052,192.644c1.14,3.236,4.216,5.248,7.456,5.244c0.868,0,1.772-0.152,2.64-0.472
				c4.108-1.456,6.232-5.996,4.772-10.096c-1.46-4.06-5.96-6.232-10.06-4.772C466.756,184.004,464.592,188.544,466.052,192.644z"/>
			<path d="M474.372,222.156c0.748,3.708,4.028,6.276,7.696,6.28c0.516,0,1.064-0.04,1.616-0.16
				c4.256-0.868,7.024-5.056,6.112-9.312c-0.904-4.304-5.052-7.028-9.312-6.156C476.184,213.712,473.464,217.896,474.372,222.156z"
				/>
			<path d="M485.856,244.732c-4.344,0.28-7.616,4.664-7.344,9c0.28,4.18,3.748,8.532,7.896,8.536c0.156,0,0.356,0,0.512,0
				c4.38,0,7.652-4.96,7.34-9.296C493.98,248.632,490.196,244.424,485.856,244.732z"/>
			<path d="M22.816,292.304c4.34-0.28,7.616-4.068,7.34-8.404c-0.32-4.336-4.068-7.612-8.408-7.336
				c-4.376,0.316-7.652,4.104-7.336,8.444c0.276,4.14,3.748,7.34,7.852,7.336C22.46,292.344,22.616,292.344,22.816,292.304z"/>
			<path d="M34.336,314.28c-0.908-4.26-5.052-7.02-9.352-6.112c-4.26,0.908-6.984,5.088-6.076,9.348
				c0.752,3.708,4.064,6.276,7.692,6.276c0.552,0,1.108-0.076,1.62-0.16C32.48,322.728,35.244,318.544,34.336,314.28z"/>
			<path d="M24.868,228.984c0.512,0.116,1.064,0.156,1.58,0.156c3.668,0,6.944-2.56,7.732-6.312
				c0.868-4.264-1.892-8.444-6.156-9.312c-4.26-0.868-8.444,1.896-9.312,6.156C17.848,223.936,20.568,228.12,24.868,228.984z"/>
			<path d="M43.66,343.792c-1.456-4.1-4.992-6.236-9.096-4.772c-4.104,1.46-2.776,5.956-2.776,10.06c0,0.04,0,0.04,0,0.04
				c0,3.196,2.432,5.212,5.708,5.204c0.868,0,0.024-0.156,0.892-0.436C42.492,352.392,45.124,347.892,43.66,343.792z"/>
			<path d="M21.712,262.264c0.156,0,0.356,0,0.512,0.004c4.104,0,7.576-3.824,7.852-8.008c0.276-4.344-3-8.716-7.34-8.996
				c-4.38-0.276-8.128,3.42-8.404,7.756C14.056,257.36,17.332,262.264,21.712,262.264z"/>
			<path d="M315.292,484.492c-4.18,1.184-6.672,5.52-5.484,9.744c0.984,3.472,4.184,5.756,7.616,5.76c0.712,0,1.42-0.12,2.132-0.316
				c4.22-1.184,6.624-5.524,5.48-9.744C323.856,485.752,319.472,483.304,315.292,484.492z"/>
			<path d="M449.08,395.636c-3.556-2.52-8.48-1.688-11.008,1.896c-2.488,3.552-1.656,8.484,1.896,11.012
				c1.38,0.94,3,1.416,4.536,1.416c2.488,0,4.936-1.144,6.472-3.356C453.496,403.052,452.628,398.124,449.08,395.636z"/>
			<path d="M441.348,127.388c-3.584,2.524-4.24,7.416-0.268,11.008v-0.036c0,2.168,2.564,3.348,5.012,3.344
				c1.576,0,1.776-0.468,3.156-1.456c3.552-2.524,4.784-7.456,2.26-11.008C448.976,125.692,444.9,124.864,441.348,127.388z"/>
			<path d="M424.22,117.128c1.936,0,3.872-0.708,5.368-2.128c3.196-3,3.36-8.012,0.4-11.168c-3-3.196-7.972-3.352-11.164-0.392
				c-3.2,2.996-3.36,8.004-0.36,11.164C420.004,116.26,422.096,117.128,424.22,117.128z"/>
			<path d="M396.332,441.08h0.04c-3.392,3.972-3.904,8.308-1.144,11.704c1.576,1.896,3.828,2.476,6.112,2.476
				c1.776,0,3.512-2.26,4.972-2.26c0.04,0,0.04,0,0.04,0c3.356,0,3.864-7.56,1.108-10.952
				C404.696,438.696,399.724,437.104,396.332,441.08z"/>
			<path d="M418.74,421.324c-2.96,3.196-2.804,8.164,0.396,11.164c1.496,1.42,3.432,2.132,5.368,2.132
				c2.124,0,4.22-0.868,5.756-2.524c3-3.196,2.8-8.168-0.356-11.168C426.708,417.972,421.7,418.124,418.74,421.324z"/>
			<path d="M460.8,168.816c1.256,0,2.484-0.316,3.664-0.908c3.876-2.012,5.372-6.784,3.36-10.652
				c-2.016-3.868-6.788-5.364-10.652-3.356c-3.868,2.012-5.368,6.784-3.356,10.652C455.236,167.236,457.956,168.812,460.8,168.816z"
				/>
			<path d="M486.96,275.852c-4.336-0.272-8.128,3.004-8.408,7.38c-0.272,4.344,3,8.092,7.344,8.364
				c0.192,0.04,0.348,0.04,0.552,0.036c4.104,0,7.576-3.196,7.852-7.372C494.612,279.916,491.3,276.168,486.96,275.852z"/>
			<path d="M483.76,307.456c-4.26-0.868-8.444,1.892-9.312,6.156c-0.868,4.264,1.856,8.448,6.16,9.312
				c0.512,0.12,1.064,0.156,1.572,0.156c3.672,0,6.944-2.564,7.732-6.312C490.784,312.504,488.016,308.32,483.76,307.456z"/>
			<path d="M476.304,338.348c-4.1-1.456-8.64,0.708-10.1,4.812c-1.42,4.104,0.712,8.604,4.812,10.064
				c0.872,0.316,1.776,0.472,2.648,0.468c3.232,0,6.308-2.008,7.416-5.244C482.54,344.304,480.404,339.808,476.304,338.348z"/>
			<path d="M464.664,367.94c-3.868-2.016-8.64-0.512-10.656,3.392c-2.012,3.828-0.468,8.604,3.396,10.616
				c1.148,0.592,2.408,0.868,3.628,0.864c2.84,0,5.604-1.536,6.984-4.26C470.028,374.688,468.528,369.952,464.664,367.94z"/>
			<path d="M285.272,490.764c-4.304,0.588-7.344,4.536-6.752,8.876c0.552,3.948,3.944,6.828,7.816,6.828
				c0.352,0,0.712-0.044,1.104-0.08c4.304-0.592,7.34-4.58,6.748-8.92C293.596,493.168,289.608,490.128,285.272,490.764z"/>
			<path d="M254.648,492.852c-4.34,0-7.852,3.552-7.852,7.892c0,4.38,3.552,7.892,7.892,7.892c4.38,0,7.892-3.552,7.892-7.892
				C262.58,496.364,259.024,492.852,254.648,492.852z"/>
			<path d="M396.016,93.692c1.46,1.188,3.232,1.776,4.972,1.776c2.288,0,4.576-1.028,6.112-2.92
				c2.768-3.392,2.256-8.364-1.144-11.128c-3.348-2.716-8.324-2.208-11.084,1.152C392.108,85.956,392.62,90.932,396.016,93.692z"/>
			<path d="M224.072,490.844c-4.34-0.592-8.284,2.444-8.876,6.744c-0.592,4.344,2.448,8.324,6.748,8.88
				c0.352,0.08,0.708,0.08,1.064,0.08c3.904,0,7.3-2.884,7.812-6.828C231.412,495.376,228.372,491.428,224.072,490.844z"/>
			<path d="M314.82,51.636c0.708,0.196,1.416,0.272,2.092,0.276c3.472,0,6.628-2.284,7.612-5.756c1.184-4.18-1.304-8.56-5.484-9.708
				c-4.18-1.184-8.564,1.26-9.704,5.484C308.152,46.116,310.596,50.452,314.82,51.636z"/>
			<path d="M194.048,484.892c-4.224-1.184-8.564,1.464-9.748,5.688c-1.144,4.184,1.304,10.108,5.484,10.108c0.04,0,0.04,0,0.04,0
				c0.672,0,1.384-0.04,2.096-0.036c3.472,0,6.628-2.688,7.612-6.156C200.676,490.276,198.228,486.036,194.048,484.892z"/>
			<path d="M191.056,52.108c0.712,0,1.416-0.084,2.168-0.316c4.184-1.184,6.628-5.528,5.444-9.708
				c-1.184-4.22-5.564-6.632-9.748-5.484c-4.18,1.184-6.624,5.564-5.444,9.748C184.464,49.82,187.616,52.108,191.056,52.108z"/>
			<path d="M370.964,75.98c1.26,0.784,2.68,1.148,4.1,1.152c2.644,0,5.248-1.348,6.704-3.792c2.292-3.708,1.112-8.564-2.596-10.808
				c-3.752-2.292-8.604-1.108-10.852,2.6C366.032,68.88,367.212,73.728,370.964,75.98z"/>
			<path d="M371.356,460.028c-3.748,2.292-4.888,7.14-2.64,10.852c1.5,2.44,4.096,3.784,6.748,3.784c1.416,0,2.8-0.396,4.104-1.184
				c3.704-2.248,4.888-7.1,2.6-10.848C379.92,458.924,375.068,457.74,371.356,460.028z"/>
			<path d="M344.172,474.188c-4.024,1.74-5.844,6.396-4.104,10.38c1.308,2.96,4.224,4.736,7.256,4.732
				c1.068,0,2.132-0.196,3.156-0.668c3.984-1.732,5.8-6.392,4.064-10.376C352.808,474.268,348.152,472.42,344.172,474.188z"/>
			<path d="M343.7,61.892c1.028,0.436,2.088,0.636,3.156,0.64c3.04,0,5.96-1.78,7.22-4.74c1.736-3.984-0.084-8.64-4.064-10.376
				c-4.024-1.74-8.68,0.076-10.376,4.1C337.904,55.5,339.712,60.156,343.7,61.892z"/>
		</g>
	</g>
</g>
<g>
	<g>
		<path d="M228.416,32.028c-2.96-2.916-8.208-2.916-11.164,0c-1.464,1.5-2.292,3.512-2.292,5.604c0,2.048,0.828,4.1,2.292,5.56
			c1.456,1.464,3.512,2.328,5.6,2.328c2.048,0,4.104-0.868,5.564-2.328c1.46-1.46,2.328-3.512,2.328-5.56
			C230.744,35.54,229.876,33.528,228.416,32.028z"/>
	</g>
</g>
</svg>